<?xml version="1.0" encoding="utf-8"?>
<!-- Generator: Adobe Illustrator 19.2.0, SVG Export Plug-In . SVG Version: 6.00 Build 0)  -->
<svg version="1.1" id="Layer_2" xmlns="http://www.w3.org/2000/svg" xmlns:xlink="http://www.w3.org/1999/xlink" x="0px" y="0px"
	 viewBox="0 0 100 100" style="enable-background:new 0 0 100 100;" xml:space="preserve">
<style type="text/css">
	.st0{fill:#22B0C4;}
	.st1{fill:#FFFFFF;}
</style>
<title>picto_sport</title>
<path class="st0" d="M50,0c27.5,0.1,49.8,22.5,49.7,50c-0.1,27.5-22.5,49.8-50,49.7C22.2,99.6,0,77.3,0,49.8C0,22.3,22.4,0,50,0z"/>
<path class="st1" d="M68.2,33.5L66.8,32c-2.9-2.9-7.1-4.2-11.2-3.3c0.6,0.7,1.1,1.4,1.5,2.2c2.9-0.3,5.9,0.7,8,2.8l1.5,1.5
	c3.8,3.8,3.8,10,0,13.9L61,54.6c-0.2,0.2-0.5,0.4-0.7,0.6L60,55.4l-0.5,0.3L59.2,56l-0.4,0.2l-0.4,0.2l-0.3,0.1l-0.5,0.2h-0.1
	c-0.7,0.3-1.5,0.5-2.2,0.5l0,0c-0.8,0.1-1.6,0.1-2.3,0l0,0c-0.7-0.1-1.4-0.3-2.1-0.5l-0.3-0.1l-0.5-0.2l-0.4-0.2l-0.4-0.2L48.9,56
	l-0.3-0.2l-0.5-0.3l-0.3-0.2c-0.2-0.2-0.5-0.4-0.7-0.6l-1.5-1.5c-0.2-0.2-0.4-0.5-0.6-0.7l-0.2-0.3c-0.1-0.2-0.2-0.3-0.3-0.5
	l-0.2-0.3L44,50.9c-0.1-0.1-0.2-0.3-0.2-0.4l-0.2-0.4c-0.1-0.2-0.1-0.3-0.2-0.5l-0.1-0.3c-0.2-0.7-0.4-1.4-0.5-2.1l0,0
	c-0.1-0.8-0.1-1.6,0-2.3l0,0c0.1-0.7,0.3-1.4,0.5-2c-0.7-0.5-1.4-1.1-1.9-1.7c-0.5,1.1-0.8,2.3-1,3.5v0.2c-0.1,0.8-0.1,1.7,0,2.5
	c-0.2,3.5-0.8,7-1.8,10.3c-0.4-0.1-0.9,0-1.2,0.3l-8.8,8.9c-0.5,0.5-0.5,1.2,0,1.7l3.1,3.1c0.5,0.5,1.2,0.5,1.7,0c0,0,0,0,0,0
	l8.9-8.9c0.3-0.3,0.4-0.8,0.3-1.2c3.4-1,6.9-1.6,10.4-1.8c0.8,0.1,1.7,0.1,2.5,0h0.2c2.7-0.3,5.2-1.5,7.2-3.5l5.5-5.5
	C73,46,73,38.3,68.2,33.5 M32.5,69.1l-1.4-1.4l7.2-7.2l1.4,1.4L32.5,69.1z M40.8,59.6l-0.2-0.2c0.8-2.2,1.3-4.5,1.7-6.8
	c0.5,0.8,1,1.5,1.7,2.1l1.5,1.5c0.6,0.6,1.3,1.2,2.1,1.7C45.2,58.3,43,58.9,40.8,59.6"/>
<path class="st1" d="M50,27.9c-4,0.1-7.1,3.5-6.9,7.5c0.1,3.8,3.2,6.8,6.9,6.9l0,0c4-0.1,7.1-3.5,6.9-7.5C56.8,31.1,53.8,28,50,27.9
	 M50,39.9c-2.6,0-4.8-2.1-4.8-4.7c0-1,0.3-2,0.8-2.8c0.3,1.6,1.2,2.9,3.7,3.7c0.8,0.2,1.3,2.3,1.3,3.6c0,0,0,0.1,0,0.1
	C50.7,39.9,50.3,39.9,50,39.9L50,39.9L50,39.9z M53.4,38.5L53.4,38.5c-0.2-1.6-0.8-4.2-2.9-4.8c-1.8-0.5-2.1-1.1-2.1-3.1
	c2.5-0.9,5.2,0.3,6.2,2.8C55.2,35.2,54.8,37.1,53.4,38.5"/>
</svg>
