<svg id="Layer_2" data-name="Layer 2" xmlns="http://www.w3.org/2000/svg" viewBox="0 0 100 100"><defs><style>.cls-1{fill:#407eba;fill-rule:evenodd;}.cls-2{fill:#fff;}</style></defs><title>pictos_formule</title><path class="cls-1" d="M50,0A49.85,49.85,0,1,1,0,49.85,49.93,49.93,0,0,1,50,0Z"/><path class="cls-2" d="M71.08,30.93a1.26,1.26,0,1,0-.59-2.45L59.08,31.21a1.26,1.26,0,0,0-.95,1L55.55,46a1.18,1.18,0,0,0,0,.14c-0.84.06-1.75,0.09-2.76,0.09a37.74,37.74,0,0,1-3.94-.19v0L47,42a40.56,40.56,0,0,1,5.83-.4l1.36,0,0.46-2.51c-0.6,0-1.21,0-1.81,0a43.05,43.05,0,0,0-6.9.54l-1-2.27a12.52,12.52,0,0,0,3.93-2.64L49.25,35a1.26,1.26,0,0,0,1.49-2,8.78,8.78,0,0,0,3-3.66l0.85,0.14,0.21,0A1.26,1.26,0,0,0,55.06,27L39.2,24.26H39.08l-0.34-.76a1.26,1.26,0,0,0-2.3,1l0.34,0.75-0.08.11L28.14,39a1.27,1.27,0,0,0,.39,1.74,1.24,1.24,0,0,0,.67.19,1.25,1.25,0,0,0,1.06-.59l0.46-.73a6.81,6.81,0,0,0,2.47.41,12.39,12.39,0,0,0,2.28-.24,1.26,1.26,0,0,0,1.12,1.37h0.13A1.26,1.26,0,0,0,38,40L38,39.54h0.06a12.73,12.73,0,0,0,4.54-1.17l1.21,2.72,0.59,1.39h0l1.39,3.11A5.1,5.1,0,0,1,44.4,45a1.26,1.26,0,0,0-2.48.35c0,3.17,8.31,3.42,10.86,3.42s10.86-.25,10.86-3.42A1.26,1.26,0,0,0,61.16,45a9,9,0,0,1-3,.86L58.87,42c5.33,0.81,8.52,2.57,8.52,3.9,0,1.77-5.67,4.34-14.55,4.34S38.3,47.7,38.3,45.93c0-.89,1.45-2,4-2.86l-1-2.33c-3,1-5.09,2.54-5.49,4.5h0a20.6,20.6,0,0,0-1.45,7.63v4.67c0,10.87,8.29,19.72,18.48,19.72s18.49-8.85,18.49-19.72V52.86A20.58,20.58,0,0,0,69.81,45h0c-0.76-2.83-5.11-4.68-10.45-5.49l1.13-6.08ZM43.9,35l-2.59-5.8,5.49,4A11.9,11.9,0,0,1,43.9,35m4.69-3.65-5.38-3.9,8,1.36a8.39,8.39,0,0,1-2.6,2.54m-16.47,6,4.31-6.86-0.69,6.61a8.38,8.38,0,0,1-3.63.24M38.3,37L39,30.26l2.6,5.81a11.83,11.83,0,0,1-3.3.94M68.82,57.53c0,9.48-7.16,17.19-16,17.19s-16-7.71-16-17.19V52.86A18.28,18.28,0,0,1,37.32,49c2.85,2.52,9.21,3.82,15.52,3.82,1.25,0,2.51-.05,3.74-0.15L60.08,56l-0.78,2a1.26,1.26,0,0,0,0,.77L60,61.67a1.26,1.26,0,0,0,1.22.95,1.25,1.25,0,0,0,.32,0A1.26,1.26,0,0,0,62.44,61L61.8,58.56l0.93-2.42a1.26,1.26,0,0,0-.3-1.36L59.8,52.24c3.66-.61,6.82-1.71,8.59-3.3a18.3,18.3,0,0,1,.42,3.92v4.67Z"/></svg>