<svg id="international" xmlns="http://www.w3.org/2000/svg" viewBox="0 0 100 100"><defs><style>.cls-1{fill:#fff;}</style></defs><title>picto_international</title><path class="cls-1" d="M83.59,48.56l-4.37,1.77c0,0.11,0,.21,0,0.32a31.21,31.21,0,0,1-59,14.29,229.9,229.9,0,0,0,24.42-8.26,2.21,2.21,0,1,0-1.6-4.12,220.36,220.36,0,0,1-24.58,8.26A31.2,31.2,0,0,1,67,25.86a85,85,0,0,0,9.29,3.07h0a35.64,35.64,0,0,0-62.1,32.88c-8.36,1.65-9.59.12-9.66,0C4,61,5.62,57.83,7.77,55.47a2.22,2.22,0,0,0-.13-3.12,2.2,2.2,0,0,0-3.11.13C3.4,53.7-2.07,60,.85,64.31c1,1.44,2.78,2.67,7,2.67a40.64,40.64,0,0,0,8-1A35.64,35.64,0,0,0,83.65,50.64C83.65,49.94,83.63,49.25,83.59,48.56Z"/><path class="cls-1" d="M56.45,53.51A8.06,8.06,0,0,1,51,51.69l-8.53-7.58a2.21,2.21,0,0,1,.23-3.49,8.69,8.69,0,0,1,4.65-1.25,10.52,10.52,0,0,1,3,.44l4.24,1.36a5.18,5.18,0,0,0,1.35.16,6.87,6.87,0,0,0,2.84-.62l2-.88-8.41-7a2.21,2.21,0,0,1,.58-3.74,14.18,14.18,0,0,1,5-.87,14.76,14.76,0,0,1,5.51,1.05C67.75,31,74.64,33.4,76.8,33.48l10.94-4.42a15.43,15.43,0,0,1,5.5-1.14,7.5,7.5,0,0,1,5.39,2,2,2,0,0,1,.2.22,5.68,5.68,0,0,1,1,4.56c-0.29,1.18-1.17,2.85-3.77,4.05L62.29,52.4A18.21,18.21,0,0,1,56.45,53.51ZM49,44.05l4.87,4.33a4.06,4.06,0,0,0,2.57.71,13.79,13.79,0,0,0,4.22-.8L94.33,34.67a2.16,2.16,0,0,0,1.23-1,1.16,1.16,0,0,0-.17-0.71,3.4,3.4,0,0,0-2.15-.59,11.28,11.28,0,0,0-3.81.8L78.11,37.73a2.09,2.09,0,0,1-.54.14,5,5,0,0,1-.66,0h0c-3.61,0-13.22-3.81-15.11-4.57a10.22,10.22,0,0,0-2.75-.68l7.27,6.07a2.21,2.21,0,0,1-.54,3.73l-5.29,2.29a11.21,11.21,0,0,1-4.62,1,9,9,0,0,1-2.72-.38Z"/></svg>