<svg id="Layer_2" data-name="Layer 2" xmlns="http://www.w3.org/2000/svg" viewBox="0 0 100 100"><defs><style>.cls-1{fill:#407eba;fill-rule:evenodd;}.cls-2{fill:#fff;}</style></defs><title>picto_chambre</title><path class="cls-1" d="M50,0A49.85,49.85,0,1,1,0,49.85,49.93,49.93,0,0,1,50,0Z"/><path class="cls-2" d="M71.86,64.5v-12a4.42,4.42,0,0,0-4.41-4.41H32.55a4.42,4.42,0,0,0-4.41,4.41v12h2.29V61H69.57V64.5h2.29ZM30.44,58.68V52.55a2.13,2.13,0,0,1,2.12-2.12h34.9a2.13,2.13,0,0,1,2.12,2.12v6.13H30.44Z"/><path class="cls-2" d="M32.9,46.17V39.25a3.44,3.44,0,0,1,3.43-3.43H63.67a3.44,3.44,0,0,1,3.43,3.43v6.92h0.14a6.49,6.49,0,0,1,2.15.37V39.25a5.73,5.73,0,0,0-5.72-5.72H36.33a5.73,5.73,0,0,0-5.72,5.72v7.29a6.51,6.51,0,0,1,2.14-.37H32.9Z"/><path class="cls-2" d="M56.18,46.17V41.59a3.11,3.11,0,0,0-3.1-3.1H46.92a3.11,3.11,0,0,0-3.1,3.1v4.59h2.29V41.59a0.83,0.83,0,0,1,.82-0.82h6.15a0.83,0.83,0,0,1,.82.82v4.59h2.29Z"/><path class="cls-2" d="M56.18,46.17V41.59a3.11,3.11,0,0,0-3.1-3.1H46.92a3.11,3.11,0,0,0-3.1,3.1v4.59h2.29V41.59a0.83,0.83,0,0,1,.82-0.82h6.15a0.83,0.83,0,0,1,.82.82v4.59h2.29Z"/></svg>