<?xml version="1.0" encoding="utf-8"?>
<!-- Generator: Adobe Illustrator 19.2.0, SVG Export Plug-In . SVG Version: 6.00 Build 0)  -->
<svg version="1.1" id="Layer_2" xmlns="http://www.w3.org/2000/svg" xmlns:xlink="http://www.w3.org/1999/xlink" x="0px" y="0px"
	 viewBox="0 0 100 100" style="enable-background:new 0 0 100 100;" xml:space="preserve">
<style type="text/css">
	.st0{fill:#22B0C4;}
	.st1{fill:#FFFFFF;}
</style>
<title>picto_chambre</title>
<path class="st0" d="M50,0c27.5,0.1,49.8,22.5,49.7,50c-0.1,27.5-22.5,49.8-50,49.7C22.2,99.6,0,77.3,0,49.8C0,22.3,22.4,0,50,0z"/>
<path class="st1" d="M71.9,64.5v-12c0-2.4-2-4.4-4.4-4.4H32.5c-2.4,0-4.4,2-4.4,4.4v12h2.3V61h39.1v3.5H71.9z M30.4,58.7v-6.1
	c0-1.2,1-2.1,2.1-2.1h34.9c1.2,0,2.1,1,2.1,2.1v6.1H30.4z"/>
<path class="st1" d="M32.9,46.2v-6.9c0-1.9,1.5-3.4,3.4-3.4h27.3c1.9,0,3.4,1.5,3.4,3.4v6.9h0.1c0.7,0,1.5,0.1,2.2,0.4v-7.3
	c0-3.2-2.6-5.7-5.7-5.7H36.3c-3.2,0-5.7,2.6-5.7,5.7v7.3c0.7-0.2,1.4-0.4,2.1-0.4C32.8,46.2,32.9,46.2,32.9,46.2z"/>
<path class="st1" d="M56.2,46.2v-4.6c0-1.7-1.4-3.1-3.1-3.1h-6.2c-1.7,0-3.1,1.4-3.1,3.1v4.6h2.3v-4.6c0-0.5,0.4-0.8,0.8-0.8h6.2
	c0.5,0,0.8,0.4,0.8,0.8v4.6L56.2,46.2L56.2,46.2z"/>
<path class="st1" d="M56.2,46.2v-4.6c0-1.7-1.4-3.1-3.1-3.1h-6.2c-1.7,0-3.1,1.4-3.1,3.1v4.6h2.3v-4.6c0-0.5,0.4-0.8,0.8-0.8h6.2
	c0.5,0,0.8,0.4,0.8,0.8v4.6L56.2,46.2L56.2,46.2z"/>
</svg>
