<svg id="Layer_2" data-name="Layer 2" xmlns="http://www.w3.org/2000/svg" viewBox="0 0 100 100"><defs><style>.cls-1{fill:#407eba;fill-rule:evenodd;}.cls-2{fill:#fff;}</style></defs><title>picto_vol</title><path class="cls-1" d="M50,0A49.85,49.85,0,1,1,0,49.85,49.93,49.93,0,0,1,50,0Z"/><path class="cls-2" d="M62.8,53.34a15.6,15.6,0,0,0-6.28-11.87H66.76a1.21,1.21,0,0,0,0-2.43H51.21v-10a1.21,1.21,0,1,0-2.43,0V39H33.24a1.21,1.21,0,0,0,0,2.43H43.64C40,44.18,37.2,48.84,37.2,53.34a12.81,12.81,0,0,0,.09,1.43H33.46A6.72,6.72,0,0,1,35,57.2h2.84a12.8,12.8,0,0,0,24.41,0H65a6.72,6.72,0,0,1,1.49-2.43H62.72A12.83,12.83,0,0,0,62.8,53.34ZM50,63.71A10.39,10.39,0,0,1,39.63,53.34c0-6,6-11.83,10.44-11.83,4.91,0,10.31,6.19,10.31,11.83A10.39,10.39,0,0,1,50,63.71Z"/><path class="cls-2" d="M49.93,44.53c-3.32,0-8,2.1-8,6.77a1.21,1.21,0,0,0,1.21,1.21H56.86a1.21,1.21,0,0,0,1.21-1.21C58.07,46.85,54,44.53,49.93,44.53Zm-5.37,5.55C45.37,47.77,48.42,47,49.93,47c2,0,4.78.86,5.52,3.12H44.56Z"/><path class="cls-2" d="M83.47,54.77H76.22a6.72,6.72,0,0,1,1.49,2.43h5.76A1.21,1.21,0,0,0,83.47,54.77Z"/><path class="cls-2" d="M15.32,56a1.22,1.22,0,0,0,1.21,1.21h5.76a6.72,6.72,0,0,1,1.49-2.43H16.53A1.21,1.21,0,0,0,15.32,56Z"/><path class="cls-2" d="M28.62,54.78a4.64,4.64,0,1,0,4.64,4.64A4.64,4.64,0,0,0,28.62,54.78Zm0,6.84a2.21,2.21,0,1,1,2.21-2.21A2.21,2.21,0,0,1,28.62,61.62Z"/><path class="cls-2" d="M71.38,54.78A4.64,4.64,0,1,0,76,59.42,4.64,4.64,0,0,0,71.38,54.78Zm0,6.84a2.21,2.21,0,1,1,2.21-2.21A2.21,2.21,0,0,1,71.38,61.62Z"/></svg>