<svg id="Layer_2" data-name="Layer 2" xmlns="http://www.w3.org/2000/svg" viewBox="0 0 100 100"><defs><style>.cls-1{fill:#407eba;fill-rule:evenodd;}.cls-2{fill:#fff;}</style></defs><title>picto_sport</title><path class="cls-1" d="M50,0A49.85,49.85,0,1,1,0,49.85,49.93,49.93,0,0,1,50,0Z"/><path class="cls-2" d="M68.23,33.48L66.77,32a12.21,12.21,0,0,0-11.17-3.3,9.47,9.47,0,0,1,1.51,2.19,9.79,9.79,0,0,1,7.95,2.81l1.46,1.46a9.82,9.82,0,0,1,0,13.87L61,54.57c-0.22.22-.45,0.43-0.69,0.62l-0.27.2-0.45.33L59.25,56l-0.38.23-0.43.23-0.3.14-0.53.23-0.07,0a9.82,9.82,0,0,1-2.25.55h0a9.85,9.85,0,0,1-2.34,0h0a9.81,9.81,0,0,1-2.13-.5l-0.26-.09-0.47-.2-0.36-.17-0.41-.21L48.9,56l-0.34-.22-0.47-.34-0.26-.2c-0.24-.2-0.47-0.4-0.69-0.63l-1.46-1.46c-0.22-.22-0.43-0.45-0.62-0.69l-0.2-.26c-0.12-.15-0.23-0.31-0.34-0.47l-0.22-.34L44,50.94c-0.07-.13-0.15-0.27-0.21-0.41l-0.17-.36c-0.07-.16-0.14-0.31-0.2-0.47l-0.09-.26a9.79,9.79,0,0,1-.5-2.14h0a9.94,9.94,0,0,1,0-2.35h0a9.87,9.87,0,0,1,.48-2,9.52,9.52,0,0,1-1.91-1.72,12.32,12.32,0,0,0-1,3.5l0,0.15a12.34,12.34,0,0,0,0,2.52,41.39,41.39,0,0,1-1.81,10.35,1.18,1.18,0,0,0-1.23.29L28.55,66.9a1.21,1.21,0,0,0,0,1.7l3.09,3.1a1.2,1.2,0,0,0,1.7,0l8.88-8.88a1.2,1.2,0,0,0,.29-1.23,41.64,41.64,0,0,1,10.37-1.81,12.33,12.33,0,0,0,2.5,0l0.15,0a12.14,12.14,0,0,0,7.17-3.47l5.52-5.52a12.23,12.23,0,0,0,0-17.28M32.5,69.14l-1.39-1.4,7.17-7.18,1.4,1.4Zm8.26-9.5-0.15-.15a42.52,42.52,0,0,0,1.71-6.76A12.18,12.18,0,0,0,44,54.81l1.46,1.46a12.22,12.22,0,0,0,2.08,1.66,42.49,42.49,0,0,0-6.76,1.71"/><path class="cls-2" d="M50,27.9a7.2,7.2,0,0,0,0,14.39h0A7.2,7.2,0,0,0,50,27.9m0,12a4.78,4.78,0,0,1-4-7.49c0.31,1.6,1.23,2.94,3.72,3.65C50.55,36.28,51,38.34,51,39.69c0,0,0,.06,0,0.09a4.81,4.81,0,0,1-1,.11h0Zm3.39-1.4,0,0c-0.18-1.57-.8-4.19-2.91-4.79-1.77-.5-2.13-1.14-2.12-3.11a4.79,4.79,0,0,1,5.08,7.86"/></svg>