<?xml version="1.0" encoding="utf-8"?>
<!-- Generator: Adobe Illustrator 19.2.0, SVG Export Plug-In . SVG Version: 6.00 Build 0)  -->
<svg version="1.1" id="Layer_2" xmlns="http://www.w3.org/2000/svg" xmlns:xlink="http://www.w3.org/1999/xlink" x="0px" y="0px"
	 viewBox="0 0 100 100" style="enable-background:new 0 0 100 100;" xml:space="preserve">
<style type="text/css">
	.st0{fill:#22B0C4;}
	.st1{fill:#FFFFFF;}
</style>
<title>picto_vol</title>
<path class="st0" d="M50,0c27.5,0.1,49.8,22.5,49.7,50c-0.1,27.5-22.5,49.8-50,49.7C22.2,99.6,0,77.3,0,49.8C0,22.3,22.4,0,50,0z"/>
<path class="st1" d="M62.8,53.3c-0.2-4.7-2.5-9.1-6.3-11.9h10.2c0.7,0,1.2-0.5,1.2-1.2S67.4,39,66.8,39H51.2V29
	c0-0.7-0.5-1.2-1.2-1.2s-1.2,0.5-1.2,1.2v10H33.2c-0.7,0-1.2,0.5-1.2,1.2s0.5,1.2,1.2,1.2h10.4c-3.6,2.8-6.4,7.4-6.4,11.9
	c0,0.5,0,1,0.1,1.4h-3.8c0.7,0.7,1.2,1.5,1.5,2.4h2.8c2.1,6.7,9.3,10.5,16.1,8.3c4-1.3,7.1-4.4,8.3-8.3H65c0.3-0.9,0.8-1.7,1.5-2.4
	h-3.8C62.8,54.3,62.8,53.8,62.8,53.3z M50,63.7c-5.7,0-10.4-4.6-10.4-10.4c0-6,6-11.8,10.4-11.8c4.9,0,10.3,6.2,10.3,11.8
	C60.4,59.1,55.7,63.7,50,63.7z"/>
<path class="st1" d="M49.9,44.5c-3.3,0-8,2.1-8,6.8c0,0.7,0.5,1.2,1.2,1.2h13.7c0.7,0,1.2-0.5,1.2-1.2C58.1,46.8,54,44.5,49.9,44.5z
	 M44.6,50.1c0.8-2.3,3.9-3.1,5.4-3.1c2,0,4.8,0.9,5.5,3.1L44.6,50.1L44.6,50.1z"/>
<path class="st1" d="M83.5,54.8h-7.2c0.7,0.7,1.2,1.5,1.5,2.4h5.8c0.7,0,1.2-0.5,1.2-1.2S84.1,54.8,83.5,54.8z"/>
<path class="st1" d="M15.3,56c0,0.7,0.5,1.2,1.2,1.2h5.8c0.3-0.9,0.8-1.7,1.5-2.4h-7.2C15.9,54.8,15.3,55.3,15.3,56
	C15.3,56,15.3,56,15.3,56z"/>
<path class="st1" d="M28.6,54.8c-2.6,0-4.6,2.1-4.6,4.6c0,2.6,2.1,4.6,4.6,4.6s4.6-2.1,4.6-4.6C33.3,56.9,31.2,54.8,28.6,54.8
	C28.6,54.8,28.6,54.8,28.6,54.8z M28.6,61.6c-1.2,0-2.2-1-2.2-2.2c0-1.2,1-2.2,2.2-2.2c1.2,0,2.2,1,2.2,2.2S29.8,61.6,28.6,61.6
	L28.6,61.6z"/>
<path class="st1" d="M71.4,54.8c-2.6,0-4.6,2.1-4.7,4.6c0,2.6,2.1,4.6,4.6,4.7c2.6,0,4.6-2.1,4.7-4.6c0,0,0,0,0,0
	C76,56.9,73.9,54.8,71.4,54.8z M71.4,61.6c-1.2,0-2.2-1-2.2-2.2s1-2.2,2.2-2.2c1.2,0,2.2,1,2.2,2.2l0,0
	C73.6,60.6,72.6,61.6,71.4,61.6z"/>
</svg>
