<?xml version="1.0" encoding="utf-8"?>
<!-- Generator: Adobe Illustrator 19.2.0, SVG Export Plug-In . SVG Version: 6.00 Build 0)  -->
<svg version="1.1" id="Layer_2" xmlns="http://www.w3.org/2000/svg" xmlns:xlink="http://www.w3.org/1999/xlink" x="0px" y="0px"
	 viewBox="0 0 75 75" style="enable-background:new 0 0 75 75;" xml:space="preserve">
<style type="text/css">
	.st0{fill:#22B0C4;}
	.st1{fill:#FFFFFF;}
</style>
<title>pictos_formule</title>
<path class="st0" d="M37.6,0C58.3,0.1,75.1,16.9,75,37.6S58.1,75.1,37.4,75C16.7,74.9,0,58.2,0,37.5C0,16.8,16.9,0,37.6,0z"/>
<path class="st1" d="M53.5,23.3c0.5-0.1,0.8-0.6,0.7-1.1c-0.1-0.5-0.6-0.8-1.1-0.7l0,0l-8.6,2.1c-0.4,0.1-0.6,0.4-0.7,0.8l-1.9,10.4
	c0,0,0,0.1,0,0.1c-0.6,0-1.3,0.1-2.1,0.1c-1,0-2,0-3-0.1l0,0l-1.4-3c1.5-0.2,2.9-0.3,4.4-0.3h1l0.3-1.9c-0.5,0-0.9,0-1.4,0
	c-1.7,0-3.5,0.1-5.2,0.4l-0.8-1.7c1.1-0.5,2.1-1.1,3-2l0.3,0.2c0.5,0.2,1,0.1,1.3-0.4c0.2-0.4,0.1-0.8-0.2-1.1
	c1-0.7,1.8-1.6,2.3-2.8l0.6,0.1h0.2c0.5,0,0.9-0.5,0.9-1c0-0.4-0.3-0.8-0.7-0.9l-11.9-2.1h-0.1l-0.3-0.6c-0.3-0.5-0.8-0.6-1.3-0.4
	c-0.4,0.2-0.6,0.7-0.4,1.1l0.3,0.6l-0.1,0.1l-6.4,10.3c-0.3,0.4-0.1,1,0.3,1.3c0.2,0.1,0.3,0.1,0.5,0.1c0.3,0,0.6-0.2,0.8-0.4
	l0.3-0.5c0.6,0.2,1.2,0.3,1.9,0.3c0.6,0,1.2-0.1,1.7-0.2c0,0.5,0.3,1,0.8,1h0.1c0.5,0,0.9-0.4,1-0.9v-0.3h0c1.2-0.1,2.3-0.4,3.4-0.9
	l0.9,2l0.4,1l0,0l1,2.3c-0.4-0.1-0.7-0.2-1-0.4c-0.1-0.5-0.6-0.8-1.2-0.7c-0.4,0.1-0.7,0.5-0.7,0.9c0,2.4,6.3,2.6,8.2,2.6
	c1.9,0,8.2-0.2,8.2-2.6c0-0.5-0.4-1-0.9-1c-0.4,0-0.8,0.3-0.9,0.7c-0.7,0.3-1.5,0.6-2.3,0.6l0.5-2.9c4,0.6,6.4,1.9,6.4,2.9
	c0,1.3-4.3,3.3-10.9,3.3s-10.9-1.9-10.9-3.2c0-0.7,1.1-1.5,3-2.2l-0.8-1.8c-2.3,0.8-3.8,1.9-4.1,3.4l0,0c-0.7,1.8-1.1,3.8-1.1,5.7
	v3.5c0,8.2,6.2,14.8,13.9,14.8s13.9-6.7,13.9-14.8v-3.5c0-2-0.4-4-1.1-5.9l0,0c-0.6-2.1-3.8-3.5-7.9-4.1l0.9-4.6L53.5,23.3z
	 M33,26.3L31.1,22l4.1,3C34.5,25.5,33.8,26,33,26.3 M36.6,23.6l-4-2.9l6,1C38,22.4,37.4,23.1,36.6,23.6 M24.2,28.1l3.2-5.2l-0.5,5
	C26,28.2,25.1,28.2,24.2,28.1 M28.8,27.8l0.5-5.1l2,4.4C30.5,27.5,29.7,27.7,28.8,27.8 M51.8,43.3c0,7.1-5.4,12.9-12,12.9
	s-12-5.8-12-12.9v-3.5c0-1,0.1-2,0.4-2.9c2.1,1.9,6.9,2.9,11.7,2.9c0.9,0,1.9,0,2.8-0.1l2.6,2.5l-0.6,1.5c-0.1,0.2-0.1,0.4,0,0.6
	l0.5,2.2c0.1,0.4,0.5,0.7,0.9,0.7c0.1,0,0.2,0,0.2,0c0.5-0.1,0.8-0.6,0.7-1.1c0,0,0,0,0-0.1l-0.5-1.8l0.7-1.8c0.1-0.4,0-0.8-0.2-1
	l-2-1.9c2.8-0.5,5.1-1.3,6.5-2.5c0.2,1,0.3,2,0.3,2.9L51.8,43.3L51.8,43.3z"/>
</svg>
